<svg xmlns="http://www.w3.org/2000/svg" width="25.862" height="25.862" viewBox="0 0 25.862 25.862">
  <g id="Group_264" data-name="Group 264" transform="translate(-6 -6)">
    <g id="Group_254" data-name="Group 254" transform="translate(6 6)">
      <path id="Path_39" data-name="Path 39" d="M136.517,187.035h.517a.517.517,0,0,0,0-1.035h-.517a.517.517,0,0,0,0,1.035Z" transform="translate(-129.276 -176.69)"/>
      <path id="Path_40" data-name="Path 40" d="M206.517,187.035h.517a.517.517,0,0,0,0-1.035h-.517a.517.517,0,0,0,0,1.035Z" transform="translate(-195.655 -176.69)"/>
      <path id="Path_41" data-name="Path 41" d="M276.517,187.035h.517a.517.517,0,1,0,0-1.035h-.517a.517.517,0,1,0,0,1.035Z" transform="translate(-262.034 -176.69)"/>
      <path id="Path_42" data-name="Path 42" d="M346.517,187.035h.517a.517.517,0,0,0,0-1.035h-.517a.517.517,0,0,0,0,1.035Z" transform="translate(-328.414 -176.69)"/>
      <path id="Path_43" data-name="Path 43" d="M416.517,187.035h.517a.517.517,0,1,0,0-1.035h-.517a.517.517,0,1,0,0,1.035Z" transform="translate(-394.793 -176.69)"/>
      <path id="Path_44" data-name="Path 44" d="M66.517,247.034h.517a.517.517,0,0,0,0-1.035h-.517a.517.517,0,0,0,0,1.035Z" transform="translate(-62.897 -233.586)"/>
      <path id="Path_45" data-name="Path 45" d="M136.517,247.034h.517a.517.517,0,0,0,0-1.035h-.517a.517.517,0,0,0,0,1.035Z" transform="translate(-129.276 -233.586)"/>
      <path id="Path_46" data-name="Path 46" d="M206.517,247.034h.517a.517.517,0,0,0,0-1.035h-.517a.517.517,0,0,0,0,1.035Z" transform="translate(-195.655 -233.586)"/>
      <path id="Path_47" data-name="Path 47" d="M276.517,247.034h.517a.517.517,0,1,0,0-1.035h-.517a.517.517,0,1,0,0,1.035Z" transform="translate(-262.034 -233.586)"/>
      <path id="Path_48" data-name="Path 48" d="M346.517,247.034h.517a.517.517,0,0,0,0-1.035h-.517a.517.517,0,0,0,0,1.035Z" transform="translate(-328.414 -233.586)"/>
      <path id="Path_49" data-name="Path 49" d="M416.517,247.034h.517a.517.517,0,1,0,0-1.035h-.517a.517.517,0,1,0,0,1.035Z" transform="translate(-394.793 -233.586)"/>
      <path id="Path_50" data-name="Path 50" d="M66.517,307.034h.517a.517.517,0,1,0,0-1.034h-.517a.517.517,0,1,0,0,1.034Z" transform="translate(-62.897 -290.483)"/>
      <path id="Path_51" data-name="Path 51" d="M136.517,307.034h.517a.517.517,0,1,0,0-1.034h-.517a.517.517,0,1,0,0,1.034Z" transform="translate(-129.276 -290.483)"/>
      <path id="Path_52" data-name="Path 52" d="M206.517,307.034h.517a.517.517,0,0,0,0-1.034h-.517a.517.517,0,1,0,0,1.034Z" transform="translate(-195.655 -290.483)"/>
      <path id="Path_53" data-name="Path 53" d="M276.517,307.034h.517a.517.517,0,1,0,0-1.034h-.517a.517.517,0,1,0,0,1.034Z" transform="translate(-262.034 -290.483)"/>
      <path id="Path_54" data-name="Path 54" d="M346.517,307.034h.517a.517.517,0,0,0,0-1.034h-.517a.517.517,0,0,0,0,1.034Z" transform="translate(-328.414 -290.483)"/>
      <path id="Path_55" data-name="Path 55" d="M416.517,307.034h.517a.517.517,0,1,0,0-1.034h-.517a.517.517,0,1,0,0,1.034Z" transform="translate(-394.793 -290.483)"/>
      <path id="Path_56" data-name="Path 56" d="M66.517,367.034h.517a.517.517,0,1,0,0-1.034h-.517a.517.517,0,1,0,0,1.034Z" transform="translate(-62.897 -347.379)"/>
      <path id="Path_57" data-name="Path 57" d="M136.517,367.034h.517a.517.517,0,1,0,0-1.034h-.517a.517.517,0,1,0,0,1.034Z" transform="translate(-129.276 -347.379)"/>
      <path id="Path_58" data-name="Path 58" d="M206.517,367.034h.517a.517.517,0,0,0,0-1.034h-.517a.517.517,0,1,0,0,1.034Z" transform="translate(-195.655 -347.379)"/>
      <path id="Path_59" data-name="Path 59" d="M276.517,367.034h.517a.517.517,0,1,0,0-1.034h-.517a.517.517,0,1,0,0,1.034Z" transform="translate(-262.034 -347.379)"/>
      <path id="Path_60" data-name="Path 60" d="M346.517,367.034h.517a.517.517,0,0,0,0-1.034h-.517a.517.517,0,0,0,0,1.034Z" transform="translate(-328.414 -347.379)"/>
      <path id="Path_61" data-name="Path 61" d="M416.517,367.034h.517a.517.517,0,1,0,0-1.034h-.517a.517.517,0,1,0,0,1.034Z" transform="translate(-394.793 -347.379)"/>
      <path id="Path_62" data-name="Path 62" d="M66.517,427.034h.517a.517.517,0,1,0,0-1.034h-.517a.517.517,0,1,0,0,1.034Z" transform="translate(-62.897 -404.276)"/>
      <path id="Path_63" data-name="Path 63" d="M136.517,427.034h.517a.517.517,0,1,0,0-1.034h-.517a.517.517,0,1,0,0,1.034Z" transform="translate(-129.276 -404.276)"/>
      <path id="Path_64" data-name="Path 64" d="M206.517,427.034h.517a.517.517,0,0,0,0-1.034h-.517a.517.517,0,1,0,0,1.034Z" transform="translate(-195.655 -404.276)"/>
      <path id="Path_65" data-name="Path 65" d="M276.517,427.034h.517a.517.517,0,1,0,0-1.034h-.517a.517.517,0,1,0,0,1.034Z" transform="translate(-262.034 -404.276)"/>
      <path id="Path_66" data-name="Path 66" d="M31.345,8.069H28.759V7.81a1.81,1.81,0,1,0-3.621,0v.259H12.724V7.81a1.81,1.81,0,0,0-3.621,0v.259H6.517A.517.517,0,0,0,6,8.586V31.345a.517.517,0,0,0,.517.517H31.345a.517.517,0,0,0,.517-.517V8.586A.517.517,0,0,0,31.345,8.069ZM26.173,7.81a.776.776,0,1,1,1.552,0V9.362a.776.776,0,0,1-1.552,0V7.81Zm-16.035,0a.776.776,0,0,1,1.552,0V9.362a.776.776,0,0,1-1.552,0V7.81ZM7.034,9.1H9.1v.259a1.81,1.81,0,0,0,3.621,0V9.1H25.138v.259a1.81,1.81,0,1,0,3.621,0V9.1h2.069v3.1H7.034ZM30.828,30.828H7.034V13.241H30.828Z" transform="translate(-6 -6)"/>
    </g>
  </g>
</svg>
