<svg xmlns="http://www.w3.org/2000/svg" width="30" height="30" viewBox="0 0 30 30">
  <g id="phone" transform="translate(0.001)">
    <path id="Path_1" data-name="Path 1" d="M120.963,113.673l-.014-.014-.007-.007-1.68-1.68a2.5,2.5,0,0,0-3.528-.008l-.01.01-.893.893-4.112-4.112.893-.893.01-.01a2.5,2.5,0,0,0-.008-3.528l-1.677-1.678-.009-.009a2.5,2.5,0,0,0-3.528,0l-.019.019-.77.77-.729.729c-1.19,1.189-1.468,3.086-.783,5.34a15.313,15.313,0,0,0,3.885,6.114c2.622,2.622,5.833,4.251,8.38,4.251a4.225,4.225,0,0,0,3.07-1.145l.956-.956.559-.559,0,0a2.5,2.5,0,0,0,.026-3.5l-.015-.016Zm-1.251,2.272-.016.016-.55.55-.953.953a2.489,2.489,0,0,1-1.831.633c-2.066,0-4.867-1.466-7.137-3.736a13.54,13.54,0,0,1-3.446-5.382c-.48-1.58-.355-2.887.345-3.586l.728-.728.783-.783.008-.009a.743.743,0,0,1,1.037,0l.006.006,1.684,1.684a.743.743,0,0,1,0,1.05l0,0h0l-1.514,1.514a.879.879,0,0,0,0,1.243l5.355,5.355a.879.879,0,0,0,1.243,0l1.5-1.505.016-.016a.742.742,0,0,1,1.045,0l1.68,1.68,0,0,.005.005a.744.744,0,0,1,0,1.042Zm0,0" transform="translate(-97.652 -95.935)" fill="#fff"/>
    <path id="Path_2" data-name="Path 2" d="M25.606,4.393A15,15,0,0,0,4.393,25.607,15,15,0,0,0,25.606,4.393ZM15,28.242A13.242,13.242,0,1,1,28.242,15,13.257,13.257,0,0,1,15,28.242Zm0,0" transform="translate(0 0)" fill="#fff"/>
  </g>
</svg>
