<svg xmlns="http://www.w3.org/2000/svg" width="68.026" height="53.4" viewBox="0 0 68.026 53.4"><g transform="translate(6.049 -1.02)"><path d="M3.51,21.909l3.117,1.646a1,1,0,1,1-.934,1.769l-4.921-2.6a1.452,1.452,0,0,1-.6-1.972l2.673-5.008a1,1,0,1,1,1.765.941L2.825,20.033A22.956,22.956,0,0,0,17.936.893a1,1,0,0,1,1.988.215A24.972,24.972,0,0,1,3.51,21.909Z" transform="matrix(0.259, -0.966, 0.966, 0.259, 32.246, 20.549)" fill="#fff"/><path d="M19.756,4.686,17.083,9.694a1,1,0,1,1-1.765-.941L17.1,5.406A22.956,22.956,0,0,0,1.994,24.547a1,1,0,1,1-1.988-.215A24.972,24.972,0,0,1,16.42,3.53L13.3,1.884A1,1,0,1,1,14.237.116l4.921,2.6a1.452,1.452,0,0,1,.6,1.972Z" transform="matrix(0.259, -0.966, 0.966, 0.259, -6.049, 47.557)" fill="#fff"/><path d="M37.041,57.615,6.385,26.959a3.714,3.714,0,0,1,0-5.246L21.713,6.385a3.714,3.714,0,0,1,5.246,0L57.615,37.041a3.714,3.714,0,0,1,0,5.246L42.287,57.615a3.713,3.713,0,0,1-5.246,0ZM23.127,7.8,7.8,23.127a1.712,1.712,0,0,0,0,2.418L38.455,56.2a1.713,1.713,0,0,0,2.418,0L56.2,40.873a1.712,1.712,0,0,0,0-2.418L25.545,7.8a1.713,1.713,0,0,0-2.418,0Z" transform="translate(-4.036 -4.28)" fill="#fff"/><path d="M14.687,18.519l3.832-3.832A1,1,0,1,1,19.934,16.1L16.1,19.934a1,1,0,1,1-1.414-1.414Z" transform="translate(-4.036 -4.28)" fill="#fff"/><path d="M43.428,47.4a2.806,2.806,0,1,1,3.969,0,2.806,2.806,0,0,1-3.969,0Zm1.414-2.555a.807.807,0,1,0,1.141,0A.807.807,0,0,0,44.842,44.842Z" transform="translate(-4.036 -4.28)" fill="#fff"/></g></svg>